Coordinates
version=1
nRows=12
nColumns=32
inDegrees=yes

Units are S.I. units (second, meters, Newtons, ...)
If the header above contains a line with 'inDegrees', this indicates whether rotational values are in degrees (yes) or radians (no).

endheader
time	pelvis_tilt	pelvis_list	pelvis_rotation	pelvis_tx	pelvis_ty	pelvis_tz	hip_flexion_r	hip_adduction_r	hip_rotation_r	knee_angle_r	knee_adduction_r	med_cond_adduction_r	lat_cond_adduction_r	patella_r_constrained_knee_angle	ankle_angle_r	subtalar_angle_r	mtp_angle_r	hip_flexion_l	hip_adduction_l	hip_rotation_l	knee_angle_l	knee_adduction_l	med_cond_adduction_l	lat_cond_adduction_l	patella_l_constrained_knee_angle	ankle_angle_l	subtalar_angle_l	mtp_angle_l	lumbar_extension	lumbar_bending	lumbar_rotation
      0.00416667	     12.44170840	    -17.33183408	     89.54494137	      0.50015678	      1.11519643	      0.14389342	     28.31078778	     15.55026878	     39.89474382	     -3.68821655	      0.00000000	      0.00000000	     -0.00000000	     -0.06437152	    -12.62705152	    -19.91989038	      0.00000000	    -16.31383058	    -10.64800052	      5.17787309	    -13.68034458	     -0.00000000	      0.00000000	     -0.00000000	     -0.23876706	    -36.47463761	      4.30074507	     -0.00000000	     -0.00000000	     -0.00000000	      0.00000000
      0.00833333	     11.84033451	    -16.95439514	     89.24637549	      0.50044324	      1.11471429	      0.12882137	     27.90090629	     15.01907767	     39.90419003	     -3.18879687	     -0.00000000	     -0.00000000	      0.00000000	     -0.05565500	    -12.09945411	    -19.92028488	      0.00000000	    -17.13710078	     -9.90016052	      5.92607453	    -14.19092723	     -0.00000000	      0.00000000	     -0.00000000	     -0.24767840	    -36.55417569	      3.99447451	      0.00000000	     -0.00000000	     -0.00000000	      0.00000000
      0.01250000	     11.29394016	    -16.48486340	     88.95706138	      0.50066559	      1.11433355	      0.11370207	     27.35800142	     14.53921998	     39.91183662	     -2.70398783	      0.00000000	      0.00000000	     -0.00000000	     -0.04719349	    -11.69121426	    -19.92041160	     -0.00000000	    -18.02829797	     -9.20523452	      6.61669302	    -14.74237277	      0.00000000	      0.00000000	     -0.00000000	     -0.25730294	    -36.62629607	      3.69217015	      0.00000000	     -0.00000000	     -0.00000000	      0.00000000
      0.01666667	     10.76582652	    -15.96113731	     88.67329619	      0.50083028	      1.11401067	      0.09850489	     26.72101098	     14.07411249	     39.91856841	     -2.22828658	     -0.00000000	      0.00000000	     -0.00000000	     -0.03889094	    -11.35507514	    -19.91995545	     -0.00000000	    -18.93752727	     -8.52866589	      7.24235180	    -15.33726000	      0.00000000	     -0.00000000	      0.00000000	     -0.26768569	    -36.69139232	      3.50823020	      0.00000000	     -0.00000000	     -0.00000000	      0.00000000
      0.02083333	     10.36839458	    -15.31772803	     88.35615483	      0.50110073	      1.11376345	      0.08313162	     25.91622441	     13.76799290	     39.92451649	     -1.79330837	      0.00000000	      0.00000000	     -0.00000000	     -0.03129914	    -11.11002430	    -19.91923071	     -0.00000000	    -19.95245240	     -7.97548576	      7.55723539	    -16.00284735	     -0.00000000	      0.00000000	     -0.00000000	     -0.27930238	    -36.70625139	      3.33849044	     -0.00000000	     -0.00000000	     -0.00000000	      0.00000000
      0.02500000	     10.04506020	    -14.55346600	     88.09343460	      0.50122353	      1.11366076	      0.06770183	     24.95392137	     13.51213600	     39.92865499	     -1.40422880	      0.00000000	     -0.00000000	      0.00000000	     -0.02450842	    -10.92683947	    -19.91818128	     -0.00000000	    -21.02382749	     -7.49441610	      7.81439736	    -16.78228426	      0.00000000	      0.00000000	     -0.00000000	     -0.29290612	    -36.67826674	      3.16636259	     -0.00000000	     -0.00000000	      0.00000000	      0.00000000
      0.02916667	      9.70782898	    -13.74285918	     87.80519108	      0.50128317	      1.11356129	      0.05213240	     23.89215895	     13.23986960	     39.93234794	     -1.02052789	      0.00000000	      0.00000000	     -0.00000000	     -0.01781157	    -10.78271558	    -19.91700931	     -0.00000000	    -22.11378788	     -6.98829782	      7.96572744	    -17.58801596	      0.00000000	      0.00000000	     -0.00000000	     -0.30696879	    -36.72320753	      3.01500452	     -0.00000000	     -0.00000000	      0.00000000	      0.00000000
      0.03333333	      9.42924931	    -12.78987488	     87.54178856	      0.50123350	      1.11357879	      0.03644836	     22.63353983	     13.00842764	     39.93527115	     -0.66624427	     -0.00000000	     -0.00000000	      0.00000000	     -0.01162816	    -10.67685760	    -19.91563119	      0.00000000	    -23.32508910	     -6.53359382	      8.04202080	    -18.42853294	      0.00000000	     -0.00000000	      0.00000000	     -0.32163858	    -36.71975720	      2.84750476	      0.00000000	     -0.00000000	      0.00000000	      0.00000000
      0.03750000	      9.21724569	    -11.74276249	     87.26418516	      0.50128670	      1.11355964	      0.02062838	     21.22888295	     12.85809332	     39.93770020	     -0.37095683	     -0.00000000	      0.00000000	     -0.00000000	     -0.00647442	    -10.55535530	    -19.91408060	     -0.00000000	    -24.58710641	     -6.17262000	      7.83913112	    -19.34984010	      0.00000000	      0.00000000	     -0.00000000	     -0.33771842	    -36.68686355	      2.89963454	     -0.00000000	     -0.00000000	      0.00000000	      0.00000000
      0.04166667	      9.02981566	    -10.63759765	     87.00541686	      0.50123529	      1.11347502	      0.00473008	     19.72826791	     12.72038493	     39.93975915	     -0.15834460	     -0.00000000	      0.00000000	     -0.00000000	     -0.00276363	    -10.46030525	    -19.91240558	     -0.00000000	    -25.87067240	     -5.82272328	      7.60000229	    -20.31801381	     -0.00000000	      0.00000000	     -0.00000000	     -0.35461624	    -36.70132288	      2.93538581	     -0.00000000	     -0.00000000	      0.00000000	      0.00000000
      0.04583333	      8.84167441	     -9.49512108	     86.76031635	      0.50112407	      1.11334065	     -0.01117552	     18.16364953	     12.57226227	     39.94141413	     -0.02440706	     -0.00000000	      0.00000000	     -0.00000000	     -0.00042598	    -10.42357660	    -19.91056736	     -0.00000000	    -27.11005294	     -5.47442777	      7.26705149	    -21.41404494	     -0.00000000	     -0.00000000	      0.00000000	     -0.37374559	    -36.63669269	      2.79730017	      0.00000000	     -0.00000000	      0.00000000	      0.00000000
      0.05000000	      8.62787728	     -8.43979411	     86.53424181	      0.50099208	      1.11297034	     -0.02718185	     16.66136303	     12.39321472	     39.94285319	      0.03691075	      0.00000000	      0.00000000	     -0.00000000	      0.00064421	    -10.46368764	    -19.90862721	      0.00000000	    -28.21605867	     -5.12102396	      6.89939153	    -22.56476237	      0.00000000	      0.00000000	     -0.00000000	     -0.39382940	    -36.47320532	      2.60263460	      0.00000000	     -0.00000000	      0.00000000	      0.00000000
